<?xml version="1.0" encoding="UTF-8"?>
<svg version="1.1" xmlns="http://www.w3.org/2000/svg" width="200" height="150">
<path d="M0 0 C66 0 132 0 200 0 C200 49.5 200 99 200 150 C134 150 68 150 0 150 C0 100.5 0 51 0 0 Z " fill="#FDFDFF" transform="translate(0,0)"/>
<path d="M0 0 C10.36021714 -0.37000775 10.36021714 -0.37000775 13.34375 1.35546875 C15 3 15 3 15.25 5.5 C15.1675 6.325 15.085 7.15 15 8 C15 8.99 15 9.98 15 11 C15 13.33333333 15 15.66666667 15 18 C10.17683306 20.91686762 5.49839366 20.13091413 0 20 C0 13.4 0 6.8 0 0 Z " fill="#6981FF" transform="translate(26,62)"/>
<path d="M0 0 C1.07765625 0.03609375 2.1553125 0.0721875 3.265625 0.109375 C4.49539062 0.17898437 4.49539062 0.17898437 5.75 0.25 C5.88517903 3.00164432 5.98415251 5.74664521 6.0625 8.5 C6.10439453 9.27730469 6.14628906 10.05460937 6.18945312 10.85546875 C6.27703284 14.95419933 6.31179406 16.61798168 3.5 19.78125 C-0.46543783 21.89915429 -2.82438643 21.5500416 -7.25 21.25 C-7.25 19.93 -7.25 18.61 -7.25 17.25 C-6.115625 17.12625 -4.98125 17.0025 -3.8125 16.875 C-2.636875 16.66875 -1.46125 16.4625 -0.25 16.25 C0.08 15.59 0.41 14.93 0.75 14.25 C-0.85875 14.6521875 -0.85875 14.6521875 -2.5 15.0625 C-6.25 15.25 -6.25 15.25 -8.6875 13.1875 C-10.49722393 9.78521901 -10.89571405 8.04357002 -10.25 4.25 C-7.16506074 0.17347312 -5.00108518 -0.21743849 0 0 Z " fill="#657CFF" transform="translate(80.25,66.75)"/>
<path d="M0 0 C1.65 0 3.3 0 5 0 C5.99 2.64 6.98 5.28 8 8 C8.66 5.69 9.32 3.38 10 1 C11.65 1 13.3 1 15 1 C15.66 3.31 16.32 5.62 17 8 C17.99 5.36 18.98 2.72 20 0 C21.32 0 22.64 0 24 0 C23.71617054 1.75128818 23.42260471 3.50100003 23.125 5.25 C22.96257812 6.22453125 22.80015625 7.1990625 22.6328125 8.203125 C22.05144152 10.77264117 21.29159735 12.72071056 20 15 C18.02 15 16.04 15 14 15 C13.34 13.02 12.68 11.04 12 9 C11.34 10.98 10.68 12.96 10 15 C8.02 15 6.04 15 4 15 C3.3299166 12.87607494 2.66403203 10.75082476 2 8.625 C1.62875 7.44164063 1.2575 6.25828125 0.875 5.0390625 C0 2 0 2 0 0 Z " fill="#6980FF" transform="translate(123,67)"/>
<path d="M0 0 C2.5 1.5625 2.5 1.5625 4 4 C4.55802097 7.90614682 4.58392818 10.05111671 2.5 13.4375 C-0.53186317 15.33241448 -2.56080456 15.64036692 -6.09375 15.44921875 C-8 15 -8 15 -10.5 12.875 C-12.25584708 9.50962644 -12.63656938 7.73984509 -12 4 C-9.04487268 -0.67895159 -5.10946802 -1.01561147 0 0 Z " fill="#5E76FF" transform="translate(118,67)"/>
<path d="M0 0 C2.5 1.5625 2.5 1.5625 4 4 C4.55802097 7.90614682 4.58392818 10.05111671 2.5 13.4375 C-0.53186317 15.33241448 -2.56080456 15.64036692 -6.09375 15.44921875 C-8 15 -8 15 -10.5 12.875 C-12.25584708 9.50962644 -12.63656938 7.73984509 -12 4 C-9.04487268 -0.67895159 -5.10946802 -1.01561147 0 0 Z " fill="#6078FF" transform="translate(64,67)"/>
<path d="M0 0 C1.32 0.33 2.64 0.66 4 1 C4.33 0.67 4.66 0.34 5 0 C7.9375 -0.1875 7.9375 -0.1875 11 0 C13 2 13 2 13.1953125 5.0390625 C13.17210938 6.22242187 13.14890625 7.40578125 13.125 8.625 C13.10695313 9.81351563 13.08890625 11.00203125 13.0703125 12.2265625 C13.04710938 13.14179687 13.02390625 14.05703125 13 15 C11.68 15 10.36 15 9 15 C9 11.37 9 7.74 9 4 C7.68 4.33 6.36 4.66 5 5 C4.67 8.3 4.34 11.6 4 15 C2.68 15 1.36 15 0 15 C0 10.05 0 5.1 0 0 Z " fill="#5E77FF" transform="translate(90,67)"/>
<path d="M0 0 C1.98 0 3.96 0 6 0 C6 6.6 6 13.2 6 20 C4.68 20 3.36 20 2 20 C2 14.72 2 9.44 2 4 C1.34 4 0.68 4 0 4 C0 2.68 0 1.36 0 0 Z " fill="#5F78FF" transform="translate(43,62)"/>
<path d="M0 0 C0 0.99 0 1.98 0 3 C0.99 3.66 1.98 4.32 3 5 C2.34 5 1.68 5 1 5 C1.33 5.99 1.66 6.98 2 8 C0.68 7.67 -0.64 7.34 -2 7 C-2.47050781 7.7940625 -2.94101563 8.588125 -3.42578125 9.40625 C-4.04839844 10.4271875 -4.67101562 11.448125 -5.3125 12.5 C-6.23482422 14.03140625 -6.23482422 14.03140625 -7.17578125 15.59375 C-7.77777344 16.3878125 -8.37976563 17.181875 -9 18 C-9.99 18 -10.98 18 -12 18 C-10.23570801 13.02790438 -7.6060834 8.56561939 -5 4 C-4.01 4 -3.02 4 -2 4 C-1.34 2.68 -0.68 1.36 0 0 Z " fill="#A3B1FF" transform="translate(170,64)"/>
<path d="M0 0 C4.875 0.875 4.875 0.875 6 2 C6.1875 4.4375 6.1875 4.4375 6 7 C5.34 7.66 4.68 8.32 4 9 C1.375 8.625 1.375 8.625 -1 8 C-1.625 5.6875 -1.625 5.6875 -2 3 C-1.34 2.01 -0.68 1.02 0 0 Z " fill="#E9ECFF" transform="translate(112,70)"/>
<path d="M0 0 C4.70588235 0.70588235 4.70588235 0.70588235 6 2 C6.1875 4.4375 6.1875 4.4375 6 7 C5.34 7.66 4.68 8.32 4 9 C1.375 8.625 1.375 8.625 -1 8 C-1.04241723 5.66705225 -1.04092937 3.33297433 -1 1 C-0.67 0.67 -0.34 0.34 0 0 Z " fill="#ECEFFF" transform="translate(58,70)"/>
<path d="M0 0 C2.125 0.375 2.125 0.375 4 1 C5.125 5.75 5.125 5.75 4 8 C2.33388095 8.042721 0.66617115 8.04063832 -1 8 C-2 7 -2 7 -2.1875 4.5625 C-2 2 -2 2 0 0 Z " fill="#F2F4FF" transform="translate(77,70)"/>
<path d="M0 0 C0 0.99 0 1.98 0 3 C0.99 3.66 1.98 4.32 3 5 C2.34 5 1.68 5 1 5 C1.33 5.99 1.66 6.98 2 8 C-0.31 7.67 -2.62 7.34 -5 7 C-5 6.01 -5 5.02 -5 4 C-4.01 4 -3.02 4 -2 4 C-1.34 2.68 -0.68 1.36 0 0 Z " fill="#BAC5FF" transform="translate(170,64)"/>
<path d="M0 0 C1.98 0 3.96 0 6 0 C6 1.32 6 2.64 6 4 C4.02 4 2.04 4 0 4 C0 2.68 0 1.36 0 0 Z " fill="#FAFAFF" transform="translate(31,74)"/>
<path d="M0 0 C1.65 0 3.3 0 5 0 C5 1.32 5 2.64 5 4 C3.35 4 1.7 4 0 4 C0 2.68 0 1.36 0 0 Z " fill="#FAFAFF" transform="translate(31,66)"/>
</svg>
